<?xml version="1.0" encoding="UTF-8" standalone="no"?>
<!-- Created with Inkscape (http://www.inkscape.org/) -->

<svg
   xmlns:dc="http://purl.org/dc/elements/1.1/"
   xmlns:cc="http://creativecommons.org/ns#"
   xmlns:rdf="http://www.w3.org/1999/02/22-rdf-syntax-ns#"
   xmlns:svg="http://www.w3.org/2000/svg"
   xmlns="http://www.w3.org/2000/svg"
   xmlns:sodipodi="http://sodipodi.sourceforge.net/DTD/sodipodi-0.dtd"
   xmlns:inkscape="http://www.inkscape.org/namespaces/inkscape"
   width="3839.1216"
   height="649.19214"
   id="svg3352"
   version="1.1"
   inkscape:version="0.92.4 (f8dce91, 2019-08-02)"
   viewBox="0 0 3839.1216 649.19215"
   sodipodi:docname="logo.svg"
   inkscape:export-filename="/home/sarah/Code/arsmentis/.themes/arsmentis/source/images/splash_logo.png"
   inkscape:export-xdpi="71.129997"
   inkscape:export-ydpi="71.129997">
  <defs
     id="defs3354">
    <inkscape:path-effect
       effect="bspline"
       id="path-effect840"
       is_visible="true"
       weight="33.333333"
       steps="2"
       helper_size="0"
       apply_no_weight="true"
       apply_with_weight="true"
       only_selected="false" />
  </defs>
  <sodipodi:namedview
     id="base"
     pagecolor="#000000"
     bordercolor="#666666"
     borderopacity="1.0"
     inkscape:pageopacity="0"
     inkscape:pageshadow="2"
     inkscape:zoom="0.29623022"
     inkscape:cx="1661.92"
     inkscape:cy="-81.164613"
     inkscape:current-layer="layer5"
     inkscape:document-units="px"
     showgrid="false"
     inkscape:snap-bbox="true"
     inkscape:snap-global="true"
     showguides="false"
     inkscape:guide-bbox="true"
     inkscape:window-width="1920"
     inkscape:window-height="1016"
     inkscape:window-x="0"
     inkscape:window-y="27"
     inkscape:window-maximized="1"
     fit-margin-top="0"
     fit-margin-left="0"
     fit-margin-right="0"
     fit-margin-bottom="0"
     inkscape:bbox-paths="true"
     inkscape:bbox-nodes="true"
     inkscape:snap-bbox-edge-midpoints="true"
     inkscape:snap-bbox-midpoints="true"
     inkscape:object-paths="true"
     inkscape:snap-intersection-paths="true"
     inkscape:snap-smooth-nodes="true"
     inkscape:snap-midpoints="true"
     inkscape:snap-object-midpoints="true"
     inkscape:snap-center="true"
     inkscape:snap-text-baseline="true"
     inkscape:snap-page="true"
     inkscape:pagecheckerboard="true">
    <sodipodi:guide
       position="285.51513,649.09713"
       orientation="0,1"
       id="guide3525"
       inkscape:locked="false" />
    <sodipodi:guide
       position="83.29396,649.09713"
       orientation="0,1"
       id="guide3533"
       inkscape:locked="false" />
    <sodipodi:guide
       position="458.04396,1.8665497"
       orientation="0,1"
       id="guide3561"
       inkscape:locked="false" />
    <sodipodi:guide
       position="245.54396,380.86653"
       orientation="0,1"
       id="guide3427"
       inkscape:locked="false" />
    <sodipodi:guide
       position="291.54396,507.36653"
       orientation="0,1"
       id="guide3431"
       inkscape:locked="false" />
    <sodipodi:guide
       position="-164.03426,156.17431"
       orientation="0,1"
       id="guide3446"
       inkscape:locked="false" />
  </sodipodi:namedview>
  <metadata
     id="metadata3357">
    <rdf:RDF>
      <cc:Work
         rdf:about="">
        <dc:format>image/svg+xml</dc:format>
        <dc:type
           rdf:resource="http://purl.org/dc/dcmitype/StillImage" />
        <dc:title></dc:title>
      </cc:Work>
    </rdf:RDF>
  </metadata>
  <g
     id="layer1"
     inkscape:label="Layer 1"
     inkscape:groupmode="layer"
     transform="translate(-16.95605,-19.674423)"
     style="display:inline" />
  <g
     inkscape:groupmode="layer"
     id="layer3"
     inkscape:label="Layer 2"
     transform="translate(-16.95605,-19.674423)">
    <path
       style="fill:#ffffff"
       d="m 179.09375,11.632812 c -9.61724,0.102188 -19.44457,1.938814 -29.27344,5.611329 -15.76478,5.89045 -33.85468,23.990467 -39.75195,39.773437 -5.05212,13.52111 -5.54915,30.102165 -1.31836,44.046872 4.26657,14.06261 5.99148,16.26571 10.33008,13.18555 7.70506,-5.47016 21.40206,-10.49644 34.5039,-12.66016 33.49388,-5.531384 68.76416,11.10476 90.48829,42.67969 4.63842,6.74174 5.26708,8.93042 3.47461,12.09961 -1.20354,2.1279 -13.90919,30.81943 -28.23438,63.75977 l -26.04492,59.89257 -26.43946,0.60157 c -30.00914,0.683 -49.9063,5.48642 -75.443354,18.21289 -49.09618,24.46723 -88.902122,78.16574 -69.345704,93.54883 11.359812,8.93563 18.826213,4.40606 31.257813,-18.96289 23.86249,-44.85682 50.155185,-66.80098 93.248045,-77.82227 16.15579,-4.13196 40.30274,-5.27012 40.30274,-1.90039 0,4.32522 -55.10884,126.3119 -61.75977,136.70898 -8.83767,13.81553 -15.96705,19.67248 -28.921874,22.67774 v 5.43164 c 0,0.20624 0.206204,0.61527 0,0.61914 0.005,0.24691 0,0.55238 0,0.94922 v 1.46679 c 27.816394,0.7167 75.865374,-0.42397 89.095704,-2.49609 v -1.07031 -0.23828 -1.64649 -0.53125 c 0,-0.11629 -0.0296,-0.25282 -0.0625,-0.39258 -0.27284,-0.13455 -0.52481,-0.27579 -0.8125,-0.40234 -2.44011,-1.07332 -4.73695,-3.55188 -5.10547,-5.50977 -0.62152,-3.30212 54.36852,-143.72265 56.2832,-143.72265 2.14063,0 18.51911,9.14759 28.5625,15.95312 14.6316,9.91455 35.21057,32.3804 42.75977,46.67969 3.33964,6.32574 8.93469,21.73221 12.43164,34.23633 15.21837,54.41688 36.30878,111.971 55.42187,151.23633 29.11537,59.81367 59.80284,92.32305 97.00782,102.76758 35.78776,10.04669 79.81784,-11.91933 90.68164,-45.23829 5.76573,-17.68335 -2.63017,-44.6794 -18.84571,-60.59375 l -8.53906,-8.3789 -8.98437,8.98633 c -13.95193,13.95194 -24.52113,18.27148 -44.69532,18.27148 -15.06773,0 -18.25144,-0.68976 -30.09765,-6.52344 C 408.95907,542.10461 375.34161,486.63011 339.62109,378.70703 321.80698,324.88485 314.03588,292.82332 297.45508,204.71875 278.88849,106.06235 276.64083,97.040584 264.44727,72.296875 245.09558,33.027516 213.44103,11.267859 179.09375,11.632812 Z M 272.1875,214.61719 c 0.72623,-0.008 3.25479,8.6604 5.61914,19.26172 2.36436,10.60132 8.72541,38.21754 14.13672,61.36914 5.41132,23.15162 9.55603,42.72287 9.20898,43.49218 -0.34705,0.76932 -6.32181,-4.19421 -13.27539,-11.03125 -10.51463,-10.33836 -38.47026,-29.97901 -46.46679,-32.64453 -2.1953,-0.73177 28.2917,-80.42016 30.77734,-80.44726 z"
       transform="translate(3.2051e-7,8.0461283)"
       id="path3523"
       inkscape:connector-curvature="0" />
  </g>
  <g
     inkscape:groupmode="layer"
     id="layer2"
     inkscape:label="Layer 3"
     transform="translate(-16.95605,-19.674423)">
    <text
       xml:space="preserve"
       style="font-style:normal;font-weight:normal;line-height:0%;font-family:sans-serif;letter-spacing:0px;word-spacing:0px;fill:#ffffff;fill-opacity:1;stroke:none;stroke-width:1px;stroke-linecap:butt;stroke-linejoin:miter;stroke-opacity:1"
       x="390.82843"
       y="470.82843"
       id="text3423"><tspan
         sodipodi:role="line"
         id="tspan3425"
         x="390.82843"
         y="470.82843"
         style="font-style:normal;font-variant:normal;font-weight:normal;font-stretch:normal;font-size:275px;line-height:1.25;font-family:'Open Sans';-inkscape-font-specification:'Open Sans';letter-spacing:5px">RS</tspan></text>
  </g>
  <g
     inkscape:groupmode="layer"
     id="layer4"
     inkscape:label="Layer 4"
     style="display:inline"
     transform="translate(-16.95605,-19.674423)">
    <text
       xml:space="preserve"
       style="font-style:normal;font-weight:normal;line-height:0%;font-family:sans-serif;letter-spacing:0px;word-spacing:0px;fill:#000000;fill-opacity:1;stroke:none;stroke-width:1px;stroke-linecap:butt;stroke-linejoin:miter;stroke-opacity:1"
       x="752.4621"
       y="470.26581"
       id="text3434"><tspan
         sodipodi:role="line"
         id="tspan3436"
         x="752.4621"
         y="470.26581"
         style="font-style:normal;font-variant:normal;font-weight:normal;font-stretch:normal;font-size:446.25px;line-height:1.25;font-family:'Open Sans';-inkscape-font-specification:'Open Sans';fill:#ffffff">M</tspan></text>
  </g>
  <g
     inkscape:groupmode="layer"
     id="layer5"
     inkscape:label="Layer 5"
     transform="translate(-16.95605,-19.674423)">
    <text
       xml:space="preserve"
       style="font-style:normal;font-weight:normal;line-height:0%;font-family:sans-serif;letter-spacing:0px;word-spacing:0px;fill:#000000;fill-opacity:1;stroke:none;stroke-width:1px;stroke-linecap:butt;stroke-linejoin:miter;stroke-opacity:1"
       x="1174"
       y="470"
       id="text3442"><tspan
         sodipodi:role="line"
         id="tspan3444"
         x="1174"
         y="470"
         style="font-style:normal;font-variant:normal;font-weight:normal;font-stretch:normal;font-size:275px;line-height:1.25;font-family:'Open Sans';-inkscape-font-specification:'Open Sans';letter-spacing:5px;fill:#ffffff">ENTIS</tspan></text>
    <text
       xml:space="preserve"
       style="font-style:normal;font-weight:normal;line-height:0%;font-family:sans-serif;letter-spacing:0px;word-spacing:0px;fill:#000000;fill-opacity:1;stroke:none;stroke-width:1px;stroke-linecap:butt;stroke-linejoin:miter;stroke-opacity:1"
       x="604.24805"
       y="666.91345"
       id="text3448"><tspan
         sodipodi:role="line"
         id="tspan3450"
         x="604.24805"
         y="666.91345"
         style="font-style:normal;font-variant:normal;font-weight:normal;font-stretch:normal;font-size:193.33332825px;line-height:1.25;font-family:'Open Sans';-inkscape-font-specification:'Open Sans';letter-spacing:15px;fill:#ffffff">C<tspan
   style="font-style:normal;font-variant:normal;font-weight:normal;font-stretch:normal;font-size:146.66667175px;font-family:'Open Sans';-inkscape-font-specification:'Open Sans';letter-spacing:15px"
   id="tspan844">USTOM <tspan
   style="font-style:normal;font-variant:normal;font-weight:normal;font-stretch:normal;font-size:200px;font-family:'Open Sans';-inkscape-font-specification:'Open Sans';letter-spacing:15px"
   id="tspan848">S</tspan>OFTWARE &amp; <tspan
   style="font-style:normal;font-variant:normal;font-weight:normal;font-stretch:normal;font-size:200px;font-family:'Open Sans';-inkscape-font-specification:'Open Sans';letter-spacing:15px"
   id="tspan846">IT C</tspan>ONSULTING</tspan></tspan></text>
  </g>
  <g
     inkscape:groupmode="layer"
     id="layer6"
     inkscape:label="Layer 6"
     transform="translate(-16.95605,-19.674423)" />
</svg>
